<svg width="146" height="146" viewBox="0 0 146 146" fill="none" xmlns="http://www.w3.org/2000/svg">
<path d="M121.667 66.9167C120.572 66.9167 119.477 67.0993 118.442 67.2209L105.911 54.7501H121.667V36.5001L99.0367 47.8151L81.5775 30.4167H54.75V42.5834H76.5892L88.7558 54.7501H66.9167L42.5833 66.9167L30.4167 54.7501H0V66.9167H24.3333C10.8892 66.9167 0 77.8059 0 91.2501C0 104.694 10.8892 115.583 24.3333 115.583C37.7775 115.583 48.6667 104.694 48.6667 91.2501L60.8333 103.417H79.0833L100.314 66.3084L106.458 72.4526C100.923 76.8934 97.3333 83.6459 97.3333 91.2501C97.3333 104.694 108.223 115.583 121.667 115.583C135.111 115.583 146 104.694 146 91.2501C146 77.8059 135.111 66.9167 121.667 66.9167ZM24.3333 103.417C17.6417 103.417 12.1667 97.9417 12.1667 91.2501C12.1667 84.5584 17.6417 79.0834 24.3333 79.0834C31.025 79.0834 36.5 84.5584 36.5 91.2501C36.5 97.9417 31.025 103.417 24.3333 103.417ZM121.667 103.417C114.975 103.417 109.5 97.9417 109.5 91.2501C109.5 84.5584 114.975 79.0834 121.667 79.0834C128.358 79.0834 133.833 84.5584 133.833 91.2501C133.833 97.9417 128.358 103.417 121.667 103.417Z" fill="#0052B0" fill-opacity="0.3"/>
</svg>
