<svg width="25" height="24" viewBox="0 0 25 24" fill="none" xmlns="http://www.w3.org/2000/svg">
<path d="M6.34492 18.6019C5.86023 18.6019 5.82929 18.5967 5.7782 18.5883C5.61453 18.5604 5.46602 18.4755 5.35895 18.3486C5.25188 18.2217 5.19316 18.061 5.1932 17.895V13.6027C5.1932 13.4162 5.26728 13.2373 5.39914 13.1055C5.531 12.9736 5.70984 12.8995 5.89632 12.8995C6.0828 12.8995 6.26165 12.9736 6.39351 13.1055C6.52537 13.2373 6.59945 13.4162 6.59945 13.6027V17.1952C6.8446 17.1952 7.12773 17.1952 7.39632 17.1919C7.5828 17.1908 7.76207 17.2639 7.89467 17.395C8.02728 17.5261 8.10238 17.7045 8.10343 17.891C8.10449 18.0775 8.03142 18.2568 7.90031 18.3894C7.76919 18.522 7.59077 18.5971 7.40429 18.5981C6.91257 18.6009 6.57648 18.6019 6.34492 18.6019ZM17.5705 18.6019C17.1247 18.6021 16.685 18.4978 16.2867 18.2972C15.8885 18.0967 15.5428 17.8056 15.2775 17.4473C15.0122 17.0889 14.8346 16.6733 14.759 16.2339C14.6834 15.7945 14.7119 15.3435 14.8422 14.9171C14.9725 14.4907 15.201 14.1008 15.5093 13.7787C15.8177 13.4566 16.1972 13.2113 16.6175 13.0625C17.0379 12.9137 17.4872 12.8656 17.9295 12.9219C18.3718 12.9783 18.7947 13.1376 19.1643 13.387C19.3169 13.4922 19.4219 13.6534 19.4563 13.8355C19.4907 14.0176 19.4518 14.206 19.3481 14.3596C19.2443 14.5132 19.0841 14.6196 18.9023 14.6557C18.7205 14.6918 18.5318 14.6547 18.3773 14.5523C18.1899 14.426 17.9756 14.3454 17.7515 14.3169C17.5273 14.2884 17.2996 14.3128 17.0866 14.3883C16.8737 14.4637 16.6813 14.588 16.5251 14.7513C16.3689 14.9145 16.2531 15.1121 16.1871 15.3282C16.1211 15.5443 16.1067 15.7728 16.145 15.9955C16.1833 16.2182 16.2732 16.4287 16.4077 16.6103C16.5421 16.7919 16.7173 16.9395 16.9191 17.0411C17.1208 17.1428 17.3437 17.1957 17.5696 17.1956C18.1274 17.1956 18.4494 16.8731 18.6046 16.4536H18.1391C17.9527 16.4536 17.7738 16.3795 17.6419 16.2477C17.5101 16.1158 17.436 15.937 17.436 15.7505C17.436 15.564 17.5101 15.3851 17.6419 15.2533C17.7738 15.1214 17.9527 15.0473 18.1391 15.0473H19.423C19.6095 15.0473 19.7884 15.1214 19.9202 15.2533C20.0521 15.3851 20.1262 15.564 20.1262 15.7505C20.1262 17.4295 19.0766 18.6019 17.5705 18.6019ZM11.159 18.6019C10.595 18.6019 10.0438 18.4347 9.57487 18.1214C9.10597 17.8081 8.7405 17.3628 8.52467 16.8418C8.30884 16.3208 8.25234 15.7475 8.36233 15.1944C8.47231 14.6413 8.74383 14.1332 9.14256 13.7344C9.54129 13.3356 10.0493 13.064 10.6024 12.9539C11.1555 12.8438 11.7288 12.9002 12.2498 13.116C12.7709 13.3317 13.2162 13.6971 13.5296 14.166C13.843 14.6348 14.0103 15.1861 14.0104 15.75C14.0096 16.5061 13.709 17.2309 13.1744 17.7656C12.6399 18.3002 11.915 18.601 11.159 18.6019ZM11.159 14.3058C10.8731 14.3058 10.5937 14.3906 10.356 14.5494C10.1183 14.7082 9.93309 14.934 9.82374 15.1981C9.71439 15.4622 9.68582 15.7529 9.74166 16.0332C9.7975 16.3136 9.93523 16.5711 10.1374 16.7732C10.3396 16.9752 10.5972 17.1128 10.8776 17.1684C11.158 17.2241 11.4486 17.1953 11.7127 17.0858C11.9767 16.9763 12.2024 16.7909 12.361 16.5531C12.5197 16.3154 12.6043 16.0359 12.6041 15.75C12.6035 15.367 12.451 14.9999 12.1801 14.7291C11.9092 14.4584 11.542 14.3062 11.159 14.3058ZM19.633 24H5.68867C5.25573 23.9996 4.84063 23.8275 4.53445 23.5214C4.22827 23.2153 4.05604 22.8003 4.05554 22.3673V20.4398C4.05554 20.2534 4.12962 20.0745 4.26148 19.9427C4.39334 19.8108 4.57219 19.7367 4.75867 19.7367C4.94515 19.7367 5.12399 19.8108 5.25585 19.9427C5.38771 20.0745 5.46179 20.2534 5.46179 20.4398V22.3673C5.46192 22.4274 5.48587 22.485 5.52841 22.5275C5.57094 22.5699 5.62858 22.5938 5.68867 22.5938H19.634C19.6941 22.5938 19.7517 22.5699 19.7942 22.5275C19.8368 22.485 19.8607 22.4274 19.8609 22.3673V20.4398C19.8609 20.2534 19.9349 20.0745 20.0668 19.9427C20.1987 19.8108 20.3775 19.7367 20.564 19.7367C20.7505 19.7367 20.9293 19.8108 21.0612 19.9427C21.193 20.0745 21.2671 20.2534 21.2671 20.4398V22.3673C21.2666 22.8004 21.0942 23.2156 20.7879 23.5218C20.4815 23.8279 20.0661 23.9999 19.633 24ZM20.563 12.0431C20.3766 12.0431 20.1977 11.969 20.0659 11.8372C19.934 11.7053 19.8599 11.5265 19.8599 11.34V5.57438C19.8596 5.51405 19.8355 5.45628 19.7929 5.4136L15.8662 1.47188C15.8452 1.45096 15.8204 1.43439 15.793 1.42313C15.7657 1.41187 15.7364 1.40613 15.7068 1.40626H5.68867C5.62858 1.40626 5.57094 1.43009 5.52841 1.47254C5.48587 1.51499 5.46192 1.57257 5.46179 1.63266V11.34C5.46179 11.5265 5.38771 11.7053 5.25585 11.8372C5.12399 11.969 4.94515 12.0431 4.75867 12.0431C4.57219 12.0431 4.39334 11.969 4.26148 11.8372C4.12962 11.7053 4.05554 11.5265 4.05554 11.34V1.63266C4.05604 1.19973 4.22827 0.784671 4.53445 0.478583C4.84063 0.172494 5.25573 0.000378184 5.68867 5.9973e-06H15.7068C15.9213 -0.000577203 16.1338 0.0413796 16.3319 0.123449C16.5301 0.205518 16.71 0.32607 16.8613 0.478131L20.789 4.41985C20.9406 4.5712 21.0608 4.75104 21.1427 4.94901C21.2246 5.14699 21.2666 5.3592 21.2662 5.57344V11.3391C21.2663 11.4315 21.2482 11.523 21.2129 11.6084C21.1776 11.6938 21.1259 11.7715 21.0606 11.8369C20.9953 11.9022 20.9177 11.9541 20.8323 11.9895C20.747 12.0249 20.6555 12.0431 20.563 12.0431Z" fill="#333333"/>
<path d="M21.0979 21.1431H4.2356C3.67615 21.1431 3.13963 20.9208 2.74404 20.5252C2.34846 20.1296 2.12622 19.5931 2.12622 19.0337V12.7463C2.12684 12.1871 2.34928 11.6509 2.74473 11.2555C3.14018 10.86 3.67634 10.6376 4.2356 10.637H21.0979C21.6574 10.637 22.1939 10.8592 22.5895 11.2548C22.9851 11.6504 23.2073 12.1869 23.2073 12.7463V19.0337C23.2073 19.5931 22.9851 20.1296 22.5895 20.5252C22.1939 20.9208 21.6574 21.1431 21.0979 21.1431ZM4.2356 12.0432C4.04912 12.0432 3.87027 12.1173 3.73841 12.2492C3.60655 12.381 3.53247 12.5599 3.53247 12.7463V19.0337C3.53247 19.2202 3.60655 19.399 3.73841 19.5309C3.87027 19.6627 4.04912 19.7368 4.2356 19.7368H21.0979C21.2844 19.7368 21.4633 19.6627 21.5951 19.5309C21.727 19.399 21.8011 19.2202 21.8011 19.0337V12.7463C21.8011 12.5599 21.727 12.381 21.5951 12.2492C21.4633 12.1173 21.2844 12.0432 21.0979 12.0432H4.2356Z" fill="#333333"/>
</svg>
