<svg width="25" height="24" viewBox="0 0 25 24" fill="none" xmlns="http://www.w3.org/2000/svg">
<g clip-path="url(#clip0_3086_1103)">
<path d="M23.7142 7.55271C22.8917 6.73024 21.5535 6.73028 20.7308 7.55289L18.6154 9.67005V4.09797C18.6154 3.53453 18.396 3.00485 17.9976 2.60646L16.0089 0.61769C15.6105 0.219253 15.0808 -0.00012207 14.5173 -0.00012207H2.44354C1.28043 -0.00012207 0.334167 0.946144 0.334167 2.10925V21.8905C0.334167 23.0536 1.28043 23.9999 2.44354 23.9999H16.506C17.6692 23.9999 18.6154 23.0536 18.6154 21.8905V15.6388L23.7141 10.5358C24.5385 9.71149 24.5387 8.37714 23.7142 7.55271ZM14.3967 1.40613C14.5296 1.40613 14.7855 1.38311 15.0145 1.61205L17.0032 3.60082C17.2264 3.82399 17.2092 4.06853 17.2092 4.21863H14.3967V1.40613ZM17.2092 21.8905C17.2092 22.2782 16.8938 22.5936 16.506 22.5936H2.44354C2.05584 22.5936 1.74042 22.2782 1.74042 21.8905V2.10925C1.74042 1.72155 2.05584 1.40613 2.44354 1.40613H12.9904V4.92175C12.9904 5.31007 13.3052 5.62488 13.6935 5.62488H17.2092V11.0775L15.1347 13.1538L14.1408 14.1477C14.0636 14.2249 14.0054 14.319 13.9709 14.4225L12.9765 17.4056C12.9352 17.5295 12.9292 17.6625 12.9592 17.7896C12.9892 17.9167 13.054 18.0329 13.1463 18.1252C13.2386 18.2176 13.3549 18.2824 13.482 18.3124C13.6091 18.3424 13.742 18.3364 13.8659 18.295L16.849 17.3007C16.9526 17.2662 17.0467 17.208 17.1239 17.1308L17.2092 17.0455V21.8905ZM15.6323 14.6449L16.6267 15.6393L16.2468 16.0191L14.7553 16.5162L15.2525 15.0247L15.6323 14.6449ZM17.6208 14.6447L16.6265 13.6503L20.0064 10.2675L21.0007 11.2619L17.6208 14.6447ZM22.7196 9.54166L21.9947 10.2671L21.0004 9.27274L21.7254 8.54707C21.9997 8.27289 22.4457 8.27294 22.7198 8.54707C22.9939 8.82128 22.9954 9.2658 22.7196 9.54166Z" fill="#333333"/>
<path d="M13.6935 7.03125H3.84973C3.46142 7.03125 3.14661 7.34606 3.14661 7.73438C3.14661 8.12269 3.46142 8.4375 3.84973 8.4375H13.6935C14.0818 8.4375 14.3966 8.12269 14.3966 7.73438C14.3966 7.34606 14.0818 7.03125 13.6935 7.03125ZM10.881 9.84375H3.84973C3.46142 9.84375 3.14661 10.1586 3.14661 10.5469C3.14661 10.9352 3.46142 11.25 3.84973 11.25H10.881C11.2693 11.25 11.5841 10.9352 11.5841 10.5469C11.5841 10.1586 11.2693 9.84375 10.881 9.84375ZM10.881 12.6562H3.84973C3.46142 12.6562 3.14661 12.9711 3.14661 13.3594C3.14661 13.7477 3.46142 14.0625 3.84973 14.0625H10.881C11.2693 14.0625 11.5841 13.7477 11.5841 13.3594C11.5841 12.9711 11.2693 12.6562 10.881 12.6562ZM10.881 15.4688H3.84973C3.46142 15.4688 3.14661 15.7836 3.14661 16.1719C3.14661 16.5602 3.46142 16.875 3.84973 16.875H10.881C11.2693 16.875 11.5841 16.5602 11.5841 16.1719C11.5841 15.7836 11.2693 15.4688 10.881 15.4688ZM13.6935 19.7812H9.47473C9.08642 19.7812 8.77161 20.0961 8.77161 20.4844C8.77161 20.8727 9.08642 21.1875 9.47473 21.1875H13.6935C14.0818 21.1875 14.3966 20.8727 14.3966 20.4844C14.3966 20.0961 14.0818 19.7812 13.6935 19.7812Z" fill="#333333"/>
</g>
<defs>
<clipPath id="clip0_3086_1103">
<rect width="24" height="24" fill="white" transform="translate(0.333313)"/>
</clipPath>
</defs>
</svg>
