<svg width="21" height="20" viewBox="0 0 21 20" fill="none" xmlns="http://www.w3.org/2000/svg">
<path fill-rule="evenodd" clip-rule="evenodd" d="M10.375 0C15.898 0 20.375 4.477 20.375 9.99999C20.3784 12.3079 19.5803 14.5453 18.117 16.33L18.137 16.352L18.005 16.464C17.0671 17.5731 15.8985 18.4641 14.5806 19.0749C13.2628 19.6856 11.8275 20.0013 10.375 20C7.425 20 4.77501 18.723 2.94501 16.693L2.74501 16.463L2.61301 16.353L2.63301 16.329C1.16991 14.5446 0.371798 12.3075 0.37501 9.99999C0.37501 4.477 4.85201 0 10.375 0ZM10.375 15C8.515 15 6.834 15.592 5.582 16.406C6.96459 17.4429 8.64677 18.0024 10.375 18C12.1032 18.0024 13.7854 17.4429 15.168 16.406C13.7373 15.4894 12.0741 15.0015 10.375 15ZM10.375 2C8.86952 1.99996 7.39459 2.42471 6.11973 3.22545C4.84486 4.02618 3.82181 5.17039 3.16817 6.52656C2.51452 7.88274 2.25681 9.39583 2.42466 10.8919C2.5925 12.388 3.1791 13.8064 4.11701 14.984C5.738 13.821 7.95 13 10.375 13C12.8 13 15.012 13.821 16.633 14.984C17.5709 13.8064 18.1575 12.388 18.3253 10.8919C18.4932 9.39583 18.2355 7.88274 17.5818 6.52656C16.9282 5.17039 15.9051 4.02618 14.6303 3.22545C13.3554 2.42471 11.8805 1.99996 10.375 2ZM10.375 4C11.4359 4 12.4533 4.42142 13.2034 5.17157C13.9536 5.92171 14.375 6.93913 14.375 7.99999C14.375 9.06086 13.9536 10.0783 13.2034 10.8284C12.4533 11.5786 11.4359 12 10.375 12C9.31413 12 8.29672 11.5786 7.54657 10.8284C6.79643 10.0783 6.375 9.06086 6.375 7.99999C6.375 6.93913 6.79643 5.92171 7.54657 5.17157C8.29672 4.42142 9.31413 4 10.375 4ZM10.375 5.99999C9.84457 5.99999 9.33586 6.21071 8.96079 6.58578C8.58571 6.96085 8.375 7.46956 8.375 7.99999C8.375 8.53042 8.58571 9.03913 8.96079 9.4142C9.33586 9.78928 9.84457 9.99999 10.375 9.99999C10.9054 9.99999 11.4141 9.78928 11.7892 9.4142C12.1643 9.03913 12.375 8.53042 12.375 7.99999C12.375 7.46956 12.1643 6.96085 11.7892 6.58578C11.4141 6.21071 10.9054 5.99999 10.375 5.99999Z" fill="#777777"/>
</svg>
